<svg height="70" viewBox="0 0 69 70" width="69" xmlns="http://www.w3.org/2000/svg"><g fill="none" fill-rule="evenodd"><rect fill="#f1f3f5" height="70" rx="4" width="69"/><path d="m3 42c-1.65685425 0-3-1.3431458-3-3v-36c0-1.65685425 1.34314575-3 3-3h28c1.6568542 0 3 1.34314575 3 3v36c0 1.6568542-1.3431458 3-3 3zm4-34c-.55228475 0-1 .44771525-1 1s.44771525 1 1 1h8c.5522847 0 1-.44771525 1-1s-.4477153-1-1-1zm0 16c-.55228475 0-1 .4477153-1 1s.44771525 1 1 1h17c.5522847 0 1-.4477153 1-1s-.4477153-1-1-1zm0 4c-.55228475 0-1 .4477153-1 1s.44771525 1 1 1h20c.5522847 0 1-.4477153 1-1s-.4477153-1-1-1zm0 4c-.55228475 0-1 .4477153-1 1s.44771525 1 1 1h15c.5522847 0 1-.4477153 1-1s-.4477153-1-1-1z" fill="#868e96" transform="translate(17 14)"/><circle cx="49" cy="17" fill="#495057" r="12"/><g stroke="#fff" stroke-linecap="round" stroke-linejoin="round" stroke-width="1.5" transform="translate(44 11)"><path d="m7.77777778 0 2.22222222 2-2.22222222 2"/><path d="m0 5v-1c0-1.1045695.99492278-2 2.22222222-2h7.77777778"/><path d="m2.22222222 11-2.22222222-2 2.22222222-2"/><path d="m10 6v1c0 1.1045695-.99492278 2-2.22222222 2h-7.77777778"/></g></g></svg>