<svg height="70" viewBox="0 0 69 70" width="69" xmlns="http://www.w3.org/2000/svg"><g fill="none" fill-rule="evenodd"><path d="m-230-145h1200v1509h-1200z" fill="#f8f9fa"/><g transform=""><rect fill="#f1f3f5" height="70" rx="4" width="69"/><path d="m20 56c-1.6568542 0-3-1.3431458-3-3v-36c0-1.6568542 1.3431458-3 3-3h28c1.6568542 0 3 1.3431458 3 3v36c0 1.6568542-1.3431458 3-3 3zm4-34c-.5522847 0-1 .4477153-1 1s.4477153 1 1 1h8c.5522847 0 1-.4477153 1-1s-.4477153-1-1-1zm0 16c-.5522847 0-1 .4477153-1 1s.4477153 1 1 1h17c.5522847 0 1-.4477153 1-1s-.4477153-1-1-1zm0 4c-.5522847 0-1 .4477153-1 1s.4477153 1 1 1h20c.5522847 0 1-.4477153 1-1s-.4477153-1-1-1zm0 4c-.5522847 0-1 .4477153-1 1s.4477153 1 1 1h15c.5522847 0 1-.4477153 1-1s-.4477153-1-1-1z" fill="#adb5bd"/></g></g></svg>