<?xml version="1.0" encoding="UTF-8"?>
<svg width="24px" height="24px" viewBox="0 0 24 24" version="1.1" xmlns="http://www.w3.org/2000/svg" xmlns:xlink="http://www.w3.org/1999/xlink">
    <!-- Generator: Sketch 55.2 (78181) - https://sketchapp.com -->
    <title>Icon / Black / Inactive Member</title>
    <desc>Created with Sketch.</desc>
    <g id="Icon-/-Black-/-Inactive-Member" stroke="none" stroke-width="1" fill="none" fill-rule="evenodd">
        <g id="round-person-24px">
            <polygon id="Path" points="0 0 24 0 24 24 0 24"></polygon>
            <path d="M17.5857864,20 L5,20 C4.45,20 4,19.55 4,19 L4,18 C4,15.4685476 8.82729088,14.1325969 11.5951726,14.0093861 L2.29289322,4.70710678 C1.90236893,4.31658249 1.90236893,3.68341751 2.29289322,3.29289322 C2.68341751,2.90236893 3.31658249,2.90236893 3.70710678,3.29289322 L21.7071068,21.2928932 C22.0976311,21.6834175 22.0976311,22.3165825 21.7071068,22.7071068 C21.3165825,23.0976311 20.6834175,23.0976311 20.2928932,22.7071068 L17.5857864,20 Z M14.3552569,11.2339365 L8.76606349,5.64474314 C9.49331906,4.64763036 10.6706806,4 12,4 C14.21,4 16,5.79 16,8 C16,9.32931945 15.3523696,10.5066809 14.3552569,11.2339365 Z" id="Combined-Shape" fill="#000000" fill-rule="nonzero"></path>
        </g>
    </g>
</svg>