<?xml version="1.0" encoding="UTF-8"?>
<svg width="24px" height="24px" viewBox="0 0 24 24" version="1.1" xmlns="http://www.w3.org/2000/svg" xmlns:xlink="http://www.w3.org/1999/xlink">
    <!-- Generator: Sketch 55.2 (78181) - https://sketchapp.com -->
    <title>Icon / Black / Bypass Fee</title>
    <desc>Created with Sketch.</desc>
    <g id="Icon-/-Black-/-Bypass-Fee" stroke="none" stroke-width="1" fill="none" fill-rule="evenodd">
        <g id="round-slow_motion_video-24px" transform="translate(2.000000, 2.000000)" fill="#000000" fill-rule="nonzero">
            <path d="M10.0333333,9.26666667 C8.52,8.87333333 8.03333333,8.46666667 8.03333333,7.83333333 C8.03333333,7.10666667 8.70666667,6.6 9.83333333,6.6 C10.78,6.6 11.2533333,6.96 11.4266667,7.53333333 C11.5066667,7.8 11.7266667,8 12.0066667,8 L12.2066667,8 C12.6466667,8 12.96,7.56666667 12.8066667,7.15333333 C12.5266667,6.36666667 11.8733333,5.71333333 10.8333333,5.46 L10.8333333,5 C10.8333333,4.44666667 10.3866667,4 9.83333333,4 C9.28,4 8.83333333,4.44666667 8.83333333,5 L8.83333333,5.44 C7.54,5.72 6.5,6.56 6.5,7.84666667 C6.5,9.38666667 7.77333333,10.1533333 9.63333333,10.6 C11.3,11 11.6333333,11.5866667 11.6333333,12.2066667 C11.6333333,12.6666667 11.3066667,13.4 9.83333333,13.4 C8.73333333,13.4 8.16666667,13.0066667 7.94666667,12.4466667 C7.84666667,12.1866667 7.62,12 7.34666667,12 L7.16,12 C6.71333333,12 6.4,12.4533333 6.56666667,12.8666667 C6.94666667,13.7933333 7.83333333,14.34 8.83333333,14.5533333 L8.83333333,15 C8.83333333,15.5533333 9.28,16 9.83333333,16 C10.3866667,16 10.8333333,15.5533333 10.8333333,15 L10.8333333,14.5666667 C12.1333333,14.32 13.1666667,13.5666667 13.1666667,12.2 C13.1666667,10.3066667 11.5466667,9.66 10.0333333,9.26666667 Z M9,1.23 C9,0.59 8.41,0.1 7.79,0.24 C6.67,0.5 5.61,0.94 4.67,1.54 C4.14,1.88 4.06,2.64 4.51,3.09 C4.83,3.41 5.34,3.49 5.72,3.25 C6.49,2.76 7.34,2.4 8.26,2.2 C8.7,2.1 9,1.69 9,1.23 L9,1.23 Z M3.1,4.51 C2.64,4.06 1.89,4.13 1.55,4.67 C0.95,5.61 0.51,6.67 0.25,7.79 C0.11,8.41 0.59,9 1.23,9 C1.68,9 2.1,8.7 2.19,8.26 C2.39,7.35 2.76,6.49 3.24,5.73 C3.5,5.34 3.42,4.83 3.1,4.51 Z M1.23,11 C0.59,11 0.1,11.59 0.24,12.21 C0.5,13.33 0.94,14.38 1.54,15.33 C1.88,15.87 2.64,15.94 3.09,15.49 C3.41,15.17 3.49,14.66 3.24,14.28 C2.75,13.52 2.39,12.67 2.19,11.75 C2.1,11.3 1.69,11 1.23,11 L1.23,11 Z M4.67,18.45 C5.62,19.05 6.67,19.49 7.79,19.75 C8.41,19.89 9,19.4 9,18.77 C9,18.32 8.7,17.9 8.26,17.81 C7.35,17.61 6.49,17.24 5.73,16.76 C5.34,16.52 4.84,16.59 4.52,16.92 C4.06,17.36 4.13,18.11 4.67,18.45 Z M20,10 C20,14.73 16.7,18.71 12.27,19.74 C11.65,19.89 11.05,19.4 11.05,18.76 C11.05,18.3 11.36,17.9 11.8,17.79 C15.35,16.97 18,13.79 18,10 C18,6.21 15.35,3.03 11.8,2.21 C11.36,2.11 11.05,1.7 11.05,1.24 C11.05,0.6 11.65,0.11 12.27,0.26 C16.7,1.29 20,5.27 20,10 Z" id="Shape"></path>
        </g>
    </g>
</svg>