<?xml version="1.0" encoding="UTF-8"?>
<svg width="24px" height="24px" viewBox="0 0 24 24" version="1.1" xmlns="http://www.w3.org/2000/svg" xmlns:xlink="http://www.w3.org/1999/xlink">
    <!-- Generator: Sketch 55.2 (78181) - https://sketchapp.com -->
    <title>Icon / Black / No Outbound</title>
    <desc>Created with Sketch.</desc>
    <g id="Icon-/-Black-/-No-Outbound" stroke="none" stroke-width="1" fill="none" fill-rule="evenodd">
        <g id="round-receipt-24px">
            <polygon id="Path" points="0 0 24 0 24 24 0 24"></polygon>
            <path d="M8.58578644,11 L7,11 C6.45,11 6,11.45 6,12 C6,12.55 6.45,13 7,13 L10.5857864,13 L8.58578644,11 Z M12.5857864,15 L7,15 C6.45,15 6,15.45 6,16 C6,16.55 6.45,17 7,17 L14.5857864,17 L12.5857864,15 Z M18.7928932,21.2071068 L18.35,21.65 C18.15,21.85 17.84,21.85 17.64,21.65 L16.85,20.86 C16.65,20.66 16.34,20.66 16.14,20.86 L15.35,21.65 C15.15,21.85 14.84,21.85 14.64,21.65 L13.85,20.86 C13.65,20.66 13.34,20.66 13.14,20.86 L12.35,21.65 C12.15,21.85 11.84,21.85 11.64,21.65 L10.85,20.86 C10.65,20.66 10.34,20.66 10.14,20.86 L9.35,21.65 C9.15,21.85 8.84,21.85 8.64,21.65 L7.85,20.86 C7.65,20.66 7.34,20.66 7.14,20.86 L6.35,21.65 C6.15,21.85 5.84,21.85 5.64,21.65 L4.85,20.86 C4.65,20.66 4.34,20.66 4.14,20.86 L3.35,21.65 C3.26,21.75 3.13,21.8 3,21.8 L3,5.41421356 L1.29289322,3.70710678 C0.902368927,3.31658249 0.902368927,2.68341751 1.29289322,2.29289322 C1.68341751,1.90236893 2.31658249,1.90236893 2.70710678,2.29289322 L21.7071068,21.2928932 C22.0976311,21.6834175 22.0976311,22.3165825 21.7071068,22.7071068 C21.3165825,23.0976311 20.6834175,23.0976311 20.2928932,22.7071068 L18.7928932,21.2071068 Z M5.55619061,2.43487027 L5.64,2.35 C5.84,2.15 6.15,2.15 6.35,2.35 L7.14,3.15 C7.34,3.35 7.65,3.35 7.85,3.15 L8.64,2.35 C8.84,2.15 9.15,2.15 9.35,2.35 L10.15,3.15 C10.35,3.35 10.66,3.35 10.86,3.15 L11.65,2.36 C11.85,2.16 12.16,2.16 12.36,2.36 L13.15,3.15 C13.35,3.35 13.66,3.35 13.86,3.15 L14.65,2.36 C14.85,2.16 15.16,2.16 15.36,2.36 L16.15,3.15 C16.35,3.35 16.66,3.35 16.86,3.15 L17.65,2.36 C17.85,2.16 18.16,2.16 18.36,2.36 L19.15,3.15 C19.35,3.35 19.66,3.35 19.86,3.15 L20.65,2.36 C20.74,2.26 20.87,2.21 21,2.21 L20.99,2.21 L20.99,17.8686797 L16.1213203,13 L17,13 C17.55,13 18,12.55 18,12 C18,11.45 17.55,11 17,11 L14.1213203,11 L12.1213203,9 L17,9 C17.55,9 18,8.55 18,8 C18,7.45 17.55,7 17,7 L10.1213203,7 L5.55619061,2.43487027 Z" id="Combined-Shape" fill="#000000" fill-rule="nonzero"></path>
        </g>
    </g>
</svg>