<svg height="24" viewBox="0 0 24 24" width="24" xmlns="http://www.w3.org/2000/svg"><g fill="none" fill-rule="evenodd"><path d="m4 4h12c.5522847 0 1 .44771525 1 1v14c0 .5522847-.4477153 1-1 1h-12c-.55228475 0-1-.4477153-1-1v-14c0-.55228475.44771525-1 1-1zm1 3v1h5v-1zm0 5v1h10v-1zm0 2v1h9v-1zm0 2v1h5v-1z" fill="#dee2e6" transform="translate(-2)"/><circle cx="17" cy="7" fill="#dee2e6" r="8" stroke="#fff" stroke-width="2"/><g opacity=".75" stroke="#000" stroke-linecap="round" stroke-linejoin="round" stroke-width=".916667" transform="translate(13 3)"><path d="m5.66666667.33333333 1.33333333 1.33333334-1.33333333 1.33333333"/><path d="m1 3.66666667v-.66666667c0-.73637967.59695367-1.33333333 1.33333333-1.33333333h4.66666667"/><path d="m2.33333333 7.66666667-1.33333333-1.33333334 1.33333333-1.33333333"/><path d="m7 4.33333333v.66666667c0 .73637967-.59695367 1.33333333-1.33333333 1.33333333h-4.66666667"/></g></g></svg>